<?xml version="1.0" encoding="utf-8"?>
<!-- Generator: Adobe Illustrator 16.0.3, SVG Export Plug-In . SVG Version: 6.00 Build 0)  -->
<!DOCTYPE svg PUBLIC "-//W3C//DTD SVG 1.1//EN" "http://www.w3.org/Graphics/SVG/1.1/DTD/svg11.dtd">
<svg version="1.1" id="Ebene_1" xmlns="http://www.w3.org/2000/svg" xmlns:xlink="http://www.w3.org/1999/xlink" x="0px" y="0px"
	 width="320px" height="48px" viewBox="0 0 320 48" enable-background="new 0 0 320 48" xml:space="preserve">
<g>
	<path fill="#FFFFFF" d="M83.761,26.794c0,2.311-0.302,4.391-0.907,6.242s-1.48,3.419-2.627,4.704l5.646,5.508l-0.895,0.804
		l-5.646-5.416c-1.071,0.934-2.288,1.641-3.649,2.122c-1.362,0.482-2.861,0.724-4.498,0.724c-3.932,0-7.019-1.32-9.26-3.959
		c-2.241-2.64-3.362-6.215-3.362-10.729v-5.003c0-4.498,1.113-8.07,3.339-10.717c2.226-2.646,5.305-3.97,9.237-3.97
		c3.917,0,7,1.324,9.249,3.97c2.249,2.647,3.374,6.219,3.374,10.717V26.794z M82.521,21.745c0-4.1-0.987-7.359-2.96-9.776
		c-1.974-2.417-4.781-3.626-8.422-3.626c-3.626,0-6.418,1.209-8.376,3.626c-1.958,2.417-2.938,5.676-2.938,9.776v5.049
		c0,4.131,0.983,7.404,2.949,9.822c1.965,2.417,4.769,3.625,8.411,3.625c3.641,0,6.441-1.204,8.399-3.614
		c1.958-2.409,2.938-5.687,2.938-9.833V21.745z"/>
	<path fill="#FFFFFF" d="M93.56,41h-1.239V7.585h1.239V41z"/>
	<path fill="#FFFFFF" d="M123.394,33.128c0-1.912-0.784-3.454-2.353-4.625c-1.568-1.17-4.242-2.375-8.021-3.614
		c-3.764-1.147-6.537-2.364-8.319-3.649s-2.673-3.19-2.673-5.714c0-2.509,1.044-4.54,3.132-6.093c2.089-1.553,4.739-2.33,7.952-2.33
		c3.335,0,6.016,0.857,8.044,2.57c2.027,1.714,3.01,4.108,2.949,7.183l-0.046,0.138h-1.056c0-2.494-0.918-4.559-2.754-6.196
		c-1.836-1.637-4.215-2.456-7.137-2.456c-3.014,0-5.409,0.708-7.183,2.123c-1.775,1.416-2.662,3.087-2.662,5.015
		s0.715,3.492,2.146,4.693c1.43,1.201,4.096,2.375,7.998,3.522c3.794,1.193,6.617,2.433,8.468,3.718
		c1.851,1.285,2.777,3.175,2.777,5.668c0,2.541-1.094,4.575-3.282,6.105c-2.188,1.529-4.888,2.295-8.101,2.295
		c-3.351,0-6.235-0.784-8.652-2.353c-2.417-1.568-3.588-4.035-3.511-7.401l0.046-0.138h1.033c0,3.029,1.117,5.229,3.351,6.598
		c2.233,1.37,4.812,2.054,7.734,2.054c2.922,0,5.339-0.677,7.252-2.03C122.438,36.857,123.394,35.164,123.394,33.128z"/>
	<path fill="#FFFFFF" d="M165.276,30.764l0.046,0.138c0.061,3.428-0.976,6.047-3.109,7.86c-2.135,1.813-4.946,2.72-8.434,2.72
		c-3.657,0-6.586-1.351-8.79-4.051s-3.305-6.246-3.305-10.637v-5.003c0-4.375,1.102-7.917,3.305-10.625s5.133-4.062,8.79-4.062
		c3.488,0,6.299,0.911,8.434,2.731c2.134,1.821,3.17,4.422,3.109,7.803l-0.046,0.138h-1.056c0-3.014-0.938-5.339-2.812-6.977
		c-1.874-1.637-4.417-2.456-7.63-2.456c-3.259,0-5.883,1.232-7.872,3.695c-1.989,2.463-2.983,5.699-2.983,9.708v5.049
		c0,4.055,0.994,7.309,2.983,9.765c1.989,2.455,4.613,3.683,7.872,3.683c3.213,0,5.756-0.787,7.63-2.363s2.812-3.947,2.812-7.114
		H165.276z"/>
	<path fill="#FFFFFF" d="M174.02,21.332c0.781-1.774,1.912-3.156,3.396-4.142c1.484-0.987,3.289-1.48,5.416-1.48
		c2.586,0,4.548,0.819,5.887,2.456c1.339,1.637,2.008,4.215,2.008,7.734V41h-1.262V25.853c0-3.259-0.601-5.557-1.801-6.896
		c-1.202-1.338-2.805-2.008-4.809-2.008c-2.632,0-4.662,0.773-6.094,2.318c-1.43,1.545-2.344,3.527-2.742,5.944V41h-1.238V28.286
		h-0.047c0-0.321,0-0.589,0-0.804c0-0.213,0.016-0.428,0.047-0.643V5.199h1.238V21.332z"/>
	<path fill="#FFFFFF" d="M207.205,41.482c-2.923,0-5.391-1.133-7.401-3.396c-2.013-2.265-3.019-5.118-3.019-8.561v-1.469
		c0-3.595,0.999-6.552,2.995-8.87c1.997-2.317,4.51-3.477,7.539-3.477c2.754,0,4.949,0.906,6.587,2.72
		c1.637,1.813,2.455,4.288,2.455,7.424v1.904h-18.336v0.299v1.469c0,3.029,0.855,5.573,2.57,7.631
		c1.713,2.058,3.916,3.086,6.609,3.086c1.483,0,2.91-0.275,4.279-0.826s2.482-1.285,3.34-2.203l0.665,0.965
		c-0.872,0.963-1.997,1.755-3.374,2.375C210.738,41.171,209.102,41.482,207.205,41.482z M207.319,16.949
		c-2.57,0-4.679,0.892-6.322,2.674c-1.646,1.782-2.575,4.035-2.788,6.758l0.068,0.139h16.845v-0.758
		c0-2.555-0.696-4.662-2.089-6.322S209.736,16.949,207.319,16.949z"/>
	<path fill="#FFFFFF" d="M230.773,40.242c2.096,0,3.947-0.573,5.554-1.721s2.409-2.869,2.409-5.164h1.057l0.045,0.139
		c0.062,2.432-0.83,4.371-2.674,5.817c-1.844,1.445-3.974,2.169-6.391,2.169c-3.167,0-5.649-1.141-7.447-3.42
		s-2.696-5.278-2.696-8.996v-0.964c0-3.702,0.896-6.693,2.685-8.973c1.791-2.279,4.262-3.419,7.413-3.419
		c2.57,0,4.747,0.754,6.528,2.261c1.783,1.507,2.644,3.63,2.582,6.368l-0.045,0.138h-1.057c0-2.433-0.779-4.295-2.34-5.588
		s-3.451-1.939-5.669-1.939c-2.907,0-5.11,1.041-6.609,3.121c-1.499,2.081-2.249,4.758-2.249,8.032v0.964
		c0,3.305,0.75,5.994,2.249,8.066C225.617,39.207,227.836,40.242,230.773,40.242z"/>
	<path fill="#FFFFFF" d="M250.831,28.308h-3.396V41h-1.239V5.199h1.239V27.07h2.915l11.291-10.901h1.445l0.046,0.138l-11.383,11.176
		l12.255,13.402L263.958,41h-1.446L250.831,28.308z"/>
</g>
<g>
</g>
<g>
</g>
<g>
</g>
<g>
</g>
<g>
</g>
<g>
</g>
</svg>
